<svg width="496.1199951171875px" height="132.839990234375px" xmlns="http://www.w3.org/2000/svg" viewBox="1.94000244140625 8.580004882812503 496.1199951171875 132.839990234375" style="background:#051103" preserveAspectRatio="xMidYMid"><defs><linearGradient id="editing-glowing-gradient" x1="0.8146601955249185" x2="0.18533980447508147" y1="0.8885729807284856" y2="0.11142701927151444"><stop offset="0" stop-color="#ff4343"></stop><stop offset="1" stop-color="#ff9090"></stop></linearGradient><filter id="editing-glowing" x="-100%" y="-100%" width="300%" height="300%"><feGaussianBlur in="SourceGraphic" result="blur" stdDeviation="10"></feGaussianBlur><feMerge><feMergeNode in="blur"></feMergeNode><feMergeNode in="SourceGraphic"></feMergeNode></feMerge></filter></defs><g filter="url(#editing-glowing)"><g transform="translate(76.36000180244446, 98.0333309173584)"><path d="M53.69-44.81L61.94-44.81L54.44-2.81L54.44-2.81Q54.19-1.56 53.31-0.66L53.31-0.66L53.31-0.66Q52.44 0.25 51.19 0.50L51.19 0.50L51.19 0.50Q49.91 0.72 48.77 0.22L48.77 0.22L48.77 0.22Q47.63-0.28 46.97-1.34L46.97-1.34L32.09-25.78L17.19-1.34L17.19-1.34Q16.66-0.44 15.73 0.06L15.73 0.06L15.73 0.06Q14.81 0.56 13.75 0.56L13.75 0.56L13.75 0.56Q12.28 0.56 11.16-0.38L11.16-0.38L11.16-0.38Q10.03-1.31 9.78-2.81L9.78-2.81L2.22-44.81L10.47-44.81L15.84-15.22L28.66-35.66L28.66-35.66Q29.19-36.56 30.11-37.06L30.11-37.06L30.11-37.06Q31.03-37.56 32.09-37.56L32.09-37.56L32.09-37.56Q33.16-37.56 34.06-37.06L34.06-37.06L34.06-37.06Q34.97-36.56 35.56-35.66L35.56-35.66L48.31-15.22L53.69-44.81ZM112.34-40.72L112.34 0L104.22 0L104.22-11L75.66-11L75.66 0L67.53 0L67.53-22.41L67.53-22.41Q67.53-27.31 69.22-31.44L69.22-31.44L69.22-31.44Q70.91-35.56 73.91-38.53L73.91-38.53L73.91-38.53Q76.91-41.50 81-43.16L81-43.16L81-43.16Q85.09-44.81 89.94-44.81L89.94-44.81L108.25-44.81L108.25-44.81Q109.09-44.81 109.84-44.50L109.84-44.50L109.84-44.50Q110.59-44.19 111.16-43.63L111.16-43.63L111.16-43.63Q111.72-43.06 112.03-42.31L112.03-42.31L112.03-42.31Q112.34-41.56 112.34-40.72L112.34-40.72ZM75.66-22.41L75.66-19.13L104.22-19.13L104.22-36.69L89.94-36.69L89.94-36.69Q89.56-36.69 88.36-36.58L88.36-36.58L88.36-36.58Q87.16-36.47 85.58-36.03L85.58-36.03L85.58-36.03Q84-35.59 82.25-34.69L82.25-34.69L82.25-34.69Q80.50-33.78 79.03-32.19L79.03-32.19L79.03-32.19Q77.56-30.59 76.61-28.20L76.61-28.20L76.61-28.20Q75.66-25.81 75.66-22.41L75.66-22.41ZM166.56-34.94L166.56-29.75L166.56-29.75Q166.56-26.97 165.88-24.78L165.88-24.78L165.88-24.78Q165.19-22.59 164.02-20.92L164.02-20.92L164.02-20.92Q162.84-19.25 161.31-18.06L161.31-18.06L161.31-18.06Q159.78-16.88 158.11-16.11L158.11-16.11L158.11-16.11Q156.44-15.34 154.73-15L154.73-15L154.73-15Q153.03-14.66 151.53-14.66L151.53-14.66L168.50 0L155.94 0L139-14.66L133.16-14.66L133.16-22.78L151.53-22.78L151.53-22.78Q153.06-22.91 154.33-23.42L154.33-23.42L154.33-23.42Q155.59-23.94 156.52-24.81L156.52-24.81L156.52-24.81Q157.44-25.69 157.94-26.92L157.94-26.92L157.94-26.92Q158.44-28.16 158.44-29.75L158.44-29.75L158.44-34.88L158.44-34.88Q158.44-35.56 158.27-35.92L158.27-35.92L158.27-35.92Q158.09-36.28 157.83-36.45L157.83-36.45L157.83-36.45Q157.56-36.63 157.27-36.66L157.27-36.66L157.27-36.66Q156.97-36.69 156.72-36.69L156.72-36.69L129.91-36.69L129.91 0L121.78 0L121.78-40.72L121.78-40.72Q121.78-41.56 122.09-42.31L122.09-42.31L122.09-42.31Q122.41-43.06 122.95-43.63L122.95-43.63L122.95-43.63Q123.50-44.19 124.25-44.50L124.25-44.50L124.25-44.50Q125-44.81 125.88-44.81L125.88-44.81L156.72-44.81L156.72-44.81Q159.44-44.81 161.31-43.83L161.31-43.83L161.31-43.83Q163.19-42.84 164.36-41.36L164.36-41.36L164.36-41.36Q165.53-39.88 166.05-38.16L166.05-38.16L166.05-38.16Q166.56-36.44 166.56-34.94L166.56-34.94ZM219.50-44.81L219.50-3.47L219.50-3.47Q219.50-2.59 219.17-1.84L219.17-1.84L219.17-1.84Q218.84-1.09 218.30-0.55L218.30-0.55L218.30-0.55Q217.75 0 217 0.31L217 0.31L217 0.31Q216.25 0.63 215.41 0.63L215.41 0.63L215.41 0.63Q214.66 0.63 213.89 0.34L213.89 0.34L213.89 0.34Q213.13 0.06 212.53-0.56L212.53-0.56L182.84-31.56L182.84 0L174.72 0L174.72-41.34L174.72-41.34Q174.72-42.59 175.42-43.61L175.42-43.61L175.42-43.61Q176.13-44.63 177.22-45.13L177.22-45.13L177.22-45.13Q178.38-45.59 179.59-45.36L179.59-45.36L179.59-45.36Q180.81-45.13 181.69-44.22L181.69-44.22L211.38-13.25L211.38-44.81L219.50-44.81ZM237.13-44.81L237.13 0L229 0L229-44.81L237.13-44.81ZM291.41-44.81L291.41-3.47L291.41-3.47Q291.41-2.59 291.08-1.84L291.08-1.84L291.08-1.84Q290.75-1.09 290.20-0.55L290.20-0.55L290.20-0.55Q289.66 0 288.91 0.31L288.91 0.31L288.91 0.31Q288.16 0.63 287.31 0.63L287.31 0.63L287.31 0.63Q286.56 0.63 285.80 0.34L285.80 0.34L285.80 0.34Q285.03 0.06 284.44-0.56L284.44-0.56L254.75-31.56L254.75 0L246.63 0L246.63-41.34L246.63-41.34Q246.63-42.59 247.33-43.61L247.33-43.61L247.33-43.61Q248.03-44.63 249.13-45.13L249.13-45.13L249.13-45.13Q250.28-45.59 251.50-45.36L251.50-45.36L251.50-45.36Q252.72-45.13 253.59-44.22L253.59-44.22L283.28-13.25L283.28-44.81L291.41-44.81ZM345.06-22.41L345.06-4.09L345.06-4.09Q345.06-3.22 344.75-2.47L344.75-2.47L344.75-2.47Q344.44-1.72 343.89-1.17L343.89-1.17L343.89-1.17Q343.34-0.63 342.59-0.31L342.59-0.31L342.59-0.31Q341.84 0 340.97 0L340.97 0L311.66 0L311.66 0Q310.53 0 309.23-0.27L309.23-0.27L309.23-0.27Q307.94-0.53 306.67-1.09L306.67-1.09L306.67-1.09Q305.41-1.66 304.25-2.55L304.25-2.55L304.25-2.55Q303.09-3.44 302.20-4.70L302.20-4.70L302.20-4.70Q301.31-5.97 300.78-7.64L300.78-7.64L300.78-7.64Q300.25-9.31 300.25-11.41L300.25-11.41L300.25-33.41L300.25-33.41Q300.25-34.53 300.52-35.83L300.52-35.83L300.52-35.83Q300.78-37.13 301.34-38.39L301.34-38.39L301.34-38.39Q301.91-39.66 302.81-40.81L302.81-40.81L302.81-40.81Q303.72-41.97 304.98-42.86L304.98-42.86L304.98-42.86Q306.25-43.75 307.91-44.28L307.91-44.28L307.91-44.28Q309.56-44.81 311.66-44.81L311.66-44.81L344.69-44.81L344.69-36.69L311.66-36.69L311.66-36.69Q310.06-36.69 309.22-35.84L309.22-35.84L309.22-35.84Q308.38-35 308.38-33.34L308.38-33.34L308.38-11.41L308.38-11.41Q308.38-9.84 309.23-8.98L309.23-8.98L309.23-8.98Q310.09-8.13 311.66-8.13L311.66-8.13L336.94-8.13L336.94-18.31L315.31-18.31L315.31-26.50L340.97-26.50L340.97-26.50Q341.84-26.50 342.59-26.17L342.59-26.17L342.59-26.17Q343.34-25.84 343.89-25.28L343.89-25.28L343.89-25.28Q344.44-24.72 344.75-23.98L344.75-23.98L344.75-23.98Q345.06-23.25 345.06-22.41L345.06-22.41Z" fill="url(#editing-glowing-gradient)"></path></g></g><style>text {
  font-size: 64px;
  font-family: Arial Black;
  dominant-baseline: central;
  text-anchor: middle;
}</style></svg>